Coordinates
version=1
nRows=9
nColumns=42
inDegrees=yes

Units are S.I. units (second, meters, Newtons, ...)
If the header above contains a line with 'inDegrees', this indicates whether rotational values are in degrees (yes) or radians (no).

endheader
time	pelvis_tilt	pelvis_list	pelvis_rotation	pelvis_tx	pelvis_ty	pelvis_tz	hip_flexion_r	hip_adduction_r	hip_rotation_r	knee_angle_r	knee_adduction_r	knee_angle_r_beta	ankle_angle_r	subtalar_angle_r	mtp_angle_r	hip_flexion_l	hip_adduction_l	hip_rotation_l	knee_angle_l	knee_adduction_l	knee_angle_l_beta	ankle_angle_l	subtalar_angle_l	mtp_angle_l	lumbar_extension	lumbar_bending	lumbar_rotation	arm_flex_r	arm_add_r	arm_rot_r	elbow_flex_r	pro_sup_r	wrist_flex_r	wrist_dev_r	arm_flex_l	arm_add_l	arm_rot_l	elbow_flex_l	pro_sup_l	wrist_flex_l	wrist_dev_l
      0.50000000	      0.83859626	      4.25106606	     11.22326819	     -0.06117236	      0.89201224	      0.37881967	     19.92818130	    -17.91387649	    -18.20903150	     62.44929223	      3.00152934	      1.08994577	      9.04647870	     -7.75486810	     -9.31963295	      4.39681163	     -1.17206152	     -3.97656165	      1.67742661	      5.52341727	      0.02927662	      5.57802785	     32.41719612	     -9.31963295	    -15.85899876	     -6.90903805	     -2.00039813	    -10.02439935	    -20.96670397	    -21.46292886	     95.70712230	     90.00000001	      0.00000000	      0.00000000	     -1.34369721	    -25.99634095	     15.89483586	     88.60442761	     90.00000001	      0.00000000	      0.00000000
      0.51000000	      0.48405449	      4.33366567	     11.26956973	     -0.05862822	      0.89166377	      0.37938157	     21.19230345	    -18.07780374	    -18.18685108	     59.92980754	      2.84786310	      1.04597246	     10.33143990	     -7.79962411	     -9.28013219	      4.57197275	     -1.11641484	     -4.00398425	      1.64093475	      5.56704564	      0.02863971	      5.71319153	     32.36831128	     -9.28013219	    -15.88329695	     -6.82115579	     -2.04662021	    -10.04274074	    -20.33505172	    -21.36501778	     93.84317206	     90.00000001	      0.00000000	      0.00000000	     -0.55358400	    -26.51439348	     16.19450534	     88.18227171	     90.00000001	      0.00000000	      0.00000000
      0.52000000	      0.13256043	      4.35976683	     11.28458362	     -0.05590456	      0.89133738	      0.38011459	     22.21293655	    -18.00390039	    -18.11519539	     56.86356673	      2.74787788	      0.99245646	     11.45639934	     -7.50231801	     -9.24009271	      4.75002266	     -1.12787809	     -4.02871429	      1.63223056	      5.59800968	      0.02848780	      5.85205822	     32.35454911	     -9.24009271	    -15.84783618	     -6.68440164	     -1.98588904	    -10.02579134	    -19.71715568	    -21.23791995	     91.84536707	     90.00000001	      0.00000000	      0.00000000	      0.26423346	    -26.97888667	     16.63210080	     87.73676315	     90.00000001	      0.00000000	      0.00000000
      0.53000000	      0.40405440	      4.11468378	     11.26864337	     -0.05247126	      0.89184143	      0.38129828	     22.07629734	    -17.28004609	    -18.82770455	     52.99905241	      2.23137715	      0.92500797	     12.52638291	     -6.09206404	     -9.14957000	      4.26460042	     -1.86359774	     -4.44219040	      1.66650606	      6.14835409	      0.02908602	      6.07420920	     32.94681137	     -9.14957000	    -16.36071353	     -6.14270762	     -1.70817331	    -10.05800920	    -19.20503974	    -21.17494948	     89.99713288	     90.00000001	      0.00000000	      0.00000000	      1.25467968	    -27.45573817	     17.28536442	     87.19745355	     90.00000001	      0.00000000	      0.00000000
      0.54000000	      0.29607422	      4.13089896	     11.29261067	     -0.04913215	      0.89176191	      0.38235313	     22.23688992	    -16.91338754	    -19.14868998	     49.13514362	      2.00834973	      0.85757003	     13.01045568	     -4.71383230	     -9.05678685	      4.12634775	     -2.02585159	     -4.52593481	      1.63264748	      6.29225154	      0.02849507	      6.27966941	     33.15272937	     -9.05678685	    -16.47067692	     -5.97182744	     -1.61558688	     -9.90860234	    -18.71956837	    -20.82589008	     87.91962925	     90.00000001	      0.00000000	      0.00000000	      1.96998848	    -27.83320422	     17.53606638	     86.86781646	     90.00000001	      0.00000000	      0.00000000
      0.55000000	     -0.15309835	      4.32346682	     11.32717917	     -0.04593433	      0.89109646	      0.38343848	     22.67135670	    -16.78578934	    -18.79210150	     45.39339379	      2.25937823	      0.79226418	     12.96604595	     -3.76863301	     -9.01966174	      4.36411180	     -1.84383921	     -4.36082436	      1.63710852	      6.26479879	      0.02857293	      6.49939540	     33.07219007	     -9.01966174	    -16.20776119	     -6.07664630	     -1.53100780	     -9.75670155	    -18.25346206	    -20.41410059	     85.80240444	     90.00000001	      0.00000000	      0.00000000	      2.63977991	    -28.23826371	     17.79728659	     86.63191076	     90.00000001	      0.00000000	      0.00000000
      0.56000000	     -0.02003262	      4.31048453	     11.45627386	     -0.04222707	      0.89123705	      0.38475052	     22.04679433	    -16.17511205	    -19.00249169	     41.30202364	      2.23050083	      0.72085630	     12.77071496	     -2.43306522	     -8.95446504	      3.96528543	     -2.16187755	     -4.29360704	      1.61346284	      6.51924262	      0.02816024	      6.77067788	     33.10471352	     -8.95446504	    -16.49724966	     -5.82573768	     -1.46770755	     -9.53494092	    -17.91032218	    -19.87364029	     83.82182070	     90.00000001	      0.00000000	      0.00000000	      3.33819152	    -28.59433195	     17.98742736	     86.44288339	     90.00000001	      0.00000000	      0.00000000
      0.57000000	     -0.08194230	      4.47708471	     11.71076874	     -0.03855541	      0.89104063	      0.38590044	     21.55430991	    -15.85523568	    -19.03504564	     37.62193608	      2.30401808	      0.65662666	     12.27664517	     -1.06679930	     -8.88456344	      3.77642694	     -2.12583309	     -4.05312868	      1.60144898	      6.55163774	      0.02795056	      7.00048444	     33.15176814	     -8.88456344	    -16.57239550	     -5.79055138	     -1.53744647	     -9.29623885	    -17.55852235	    -19.28320380	     81.86410521	     90.00000001	      0.00000000	      0.00000000	      3.98437257	    -28.92048594	     18.12020556	     86.38412871	     90.00000001	      0.00000000	      0.00000000
      0.58000000	     -0.19239203	      4.72469421	     12.03933333	     -0.03479128	      0.89077385	      0.38701678	     21.03072866	    -15.68647080	    -19.00152290	     34.37645538	      2.46002392	      0.59998233	     11.71205077	      0.01184064	     -8.82520589	      3.65301026	     -1.94199863	     -3.64144582	      1.64736824	      6.48743847	      0.02875200	      7.24051060	     33.10744217	     -8.82520589	    -16.56830467	     -5.84554634	     -1.68466211	     -9.04015923	    -17.24023582	    -18.63737009	     79.96556357	     90.00000001	      0.00000000	      0.00000000	      4.55216450	    -29.26055661	     18.24929312	     86.36875300	     90.00000001	      0.00000000	      0.00000000
